<svg xmlns="http://www.w3.org/2000/svg" xmlns:xlink="http://www.w3.org/1999/xlink" width="300" height="300" viewBox="1160150.6109640943 1942164.869658116 8971.047971861437 9869.694370048353" preserveAspectRatio="xMinYMin meet"><g transform="matrix(1,0,0,-1,0,3894199.4336862806)"><g><path fill-rule="evenodd" fill="#66cc99" stroke="#555555" stroke-width="65.79796246698902" opacity="0.6" d="M 1168756.114700028,1942653.0085940205 L 1168435.0588000317,1942653.7673940212 L 1168425.100000031,1942661.1596940148 L 1168416.6500000244,1942665.989694018 L 1168405.0300000305,1942670.3396940199 L 1168386.1201000286,1942674.2096940149 L 1168362.4200000283,1942675.4096940088 L 1168343.2201000305,1942674.8496940145 L 1168264.2799000314,1942673.274394012 L 1168236.4800000277,1942672.7196940135 L 1168222.4293000298,1942672.5287940186 L 1168118.700000026,1942671.1196940131 L 1168074.56220003,1942669.9879940206 L 1168034.8500000294,1942668.9696940153 L 1167983.4400000272,1942667.7796940163 L 1167883.6099000305,1942665.4931940169 L 1167799.190100029,1942663.5596940168 L 1167674.889900027,1942660.4396940095 L 1167641.2814000286,1942659.6827940235 L 1167595.8400000264,1942658.6596940127 L 1167504.240100029,1942656.7252940133 L 1167500.0000000265,1942656.8159940192 L 1167489.6933000293,1942656.6735940205 L 1167470.365500027,1942656.4065940233 L 1167459.1250000312,1942656.2513940202 L 1167430.6987000278,1942655.8586940148 L 1167398.9200000272,1942655.4196940204 L 1167350.090000025,1942653.8095940212 L 1167341.5201000278,1942653.5269940188 L 1167261.8400000257,1942650.8996940171 L 1167200.3000000312,1942650.1996940225 L 1167148.9371000284,1942649.031194021 L 1167132.6187000314,1942648.6599940176 L 1167128.0699000277,1942648.5564940209 L 1167124.9455000288,1942648.4853940143 L 1167103.7670000284,1942648.0035940239 L 1166998.9801000245,1942645.6196940127 L 1166952.1600000279,1942644.4207940216 L 1166868.9401000272,1942642.2896940173 L 1166777.7570000251,1942640.3886940207 L 1166727.4901000252,1942639.49969402 L 1166620.8001000239,1942637.1696940286 L 1166565.5001000257,1942635.9596940237 L 1166503.8500000266,1942634.61969402 L 1166446.7269000246,1942631.9306940236 L 1166413.560000025,1942632.2296940242 L 1166318.3400000243,1942629.95969403 L 1166293.3199000247,1942629.4339940215 L 1166186.0200000203,1942627.1796940204 L 1166120.7428000262,1942625.9076940245 L 1166069.0201000297,1942624.8996940244 L 1165978.4201000293,1942623.0396940245 L 1165970.5398000288,1942622.8878940276 L 1165859.0201000276,1942620.739694029 L 1165807.2198000199,1942619.2228940278 L 1165780.140000027,1942618.4298940354 L 1165713.5401000264,1942616.4796940205 L 1165641.419900027,1942615.0143940288 L 1165605.880000024,1942614.2922940261 L 1165578.6801000247,1942613.7396940296 L 1165479.4400000267,1942611.729794025 L 1165442.1499000296,1942610.9140940208 L 1165395.3101000253,1942609.889694029 L 1165280.5400000212,1942607.499694029 L 1165194.420000025,1942605.6996940332 L 1165147.4001000267,1942604.4774940247 L 1165112.2099000236,1942603.562794034 L 1165044.3800000218,1942601.799694026 L 1165000.0000000226,1942600.8395940321 L 1164951.5100000284,1942599.6880940348 L 1164826.0100000284,1942596.7496940333 L 1164783.7599000218,1942595.5921940329 L 1164724.9000000202,1942593.9796940307 L 1164533.5600000198,1942589.0707940299 L 1164457.1200000234,1942587.1096940292 L 1164429.9102000268,1942586.5536940314 L 1164397.777100025,1942585.896994035 L 1164369.7368000217,1942585.3238940283 L 1164325.000000023,1942584.4096940325 L 1164209.880000024,1942580.679694033 L 1164202.1482000255,1942580.4327940345 L 1164080.2401000217,1942576.5396940322 L 1164016.860100023,1942574.1396940418 L 1163973.060000024,1942572.4796940328 L 1163939.6102000219,1942571.3868940352 L 1163892.8601000241,1942569.8596940385 L 1163788.7800000277,1942566.4096940332 L 1163639.9700000251,1942561.2696940408 L 1163590.3943000203,1942559.8451940357 L 1163543.9200000241,1942558.5096940347 L 1163426.300000024,1942554.4096940344 L 1163337.040000021,1942551.1996940384 L 1163236.7400000219,1942547.6996940423 L 1163196.0359000207,1942546.4040940397 L 1163153.8001000204,1942545.0596940492 L 1163151.0372000246,1942544.978594045 L 1163135.5581000252,1942544.5243940437 L 1163118.374400025,1942544.020194033 L 1163118.349100021,1942544.019494039 L 1163070.1239000263,1942542.5324940395 L 1163053.1699000234,1942541.9140940371 L 1163004.8000000238,1942540.1496940409 L 1162922.6501000267,1942537.9396940367 L 1162816.8400000264,1942533.9396940458 L 1162740.2100000253,1942531.5396940366 L 1162700.0780000263,1942530.4138940438 L 1162681.8000000217,1942583.679694032 L 1162628.0600000215,1942739.3396940061 L 1162584.5600000194,1942862.1796939769 L 1162540.1200000236,1942987.5796939512 L 1162500.000000022,1943101.0011939316 L 1162458.792200015,1943217.6239939127 L 1162458.610000021,1943218.1396939098 L 1162394.2017000199,1943401.9502938755 L 1162357.9700000205,1943505.3496938536 L 1162296.8200000254,1943678.9696938149 L 1162233.2789000266,1943859.7690937796 L 1162229.9400000246,1943869.2696937846 L 1162188.690000026,1943986.679693753 L 1162138.8800000206,1944128.2296937262 L 1162081.810000019,1944290.0496936932 L 1162041.6800000235,1944403.819693672 L 1162004.1805000226,1944510.2646936576 L 1161983.7600000207,1944568.2296936412 L 1161941.490000024,1944687.4196936206 L 1161913.9110000206,1944764.6299936122 L 1161886.0062000214,1944842.7519935924 L 1161857.1600000209,1944923.509693569 L 1161831.9100000234,1944997.779693563 L 1161823.330000022,1945023.1196935524 L 1161797.3000000236,1945098.0196935437 L 1161773.9020000198,1945164.1600935291 L 1161737.1599000224,1945268.019693512 L 1161704.7800000212,1945359.8296934848 L 1161690.7200000242,1945400.099693478 L 1161670.6300000208,1945457.179693471 L 1161640.2800000221,1945543.6996934535 L 1161616.2579000192,1945611.1613934385 L 1161571.3700000185,1945737.219593415 L 1161552.7800000203,1945790.3796934031 L 1161516.9800000216,1945892.7396933858 L 1161498.7065000234,1945943.499493371 L 1161481.1601000235,1945992.239693367 L 1161460.6833000244,1946051.0997933561 L 1161447.8600000173,1946087.9596933464 L 1161420.8401000204,1946165.0195933268 L 1161399.720200018,1946224.6096933158 L 1161373.800100022,1946297.719693295 L 1161353.9801000203,1946353.5996932914 L 1161332.1800000207,1946415.9596932824 L 1161309.4019000204,1946486.7902932663 L 1161295.770000019,1946529.1796932549 L 1161284.8401000244,1946563.1596932472 L 1161274.1700000209,1946601.8796932485 L 1161260.7001000247,1946650.8296932285 L 1161242.3201000197,1946717.4496932235 L 1161220.180000018,1946797.6495931982 L 1161202.0200000198,1946865.3596931894 L 1161184.8282000227,1946928.1791931794 L 1161175.0800000187,1946963.79969317 L 1161154.020100025,1947040.7496931546 L 1161141.8801000235,1947085.5996931505 L 1161091.560000018,1947269.7597931144 L 1161066.3546000214,1947364.1069930915 L 1161054.8101000218,1947407.3196930827 L 1161046.2800000207,1947437.5397930767 L 1161029.9728000222,1947499.9996930675 L 1161008.020000018,1947582.239693047 L 1160978.54000002,1947684.099593026 L 1160971.0500000208,1947714.2196930244 L 1160961.7514000242,1947751.6104930132 L 1160949.8201000183,1947799.5896930087 L 1160934.1801000223,1947854.6797929958 L 1160915.240000023,1947924.8596929798 L 1160895.9000000227,1947996.4896929758 L 1160865.2400000226,1948109.91969295 L 1160835.2001000233,1948220.1797929232 L 1160808.6600000213,1948317.0796929034 L 1160793.4752000193,1948374.2837928957 L 1160781.6001000204,1948419.019692887 L 1160734.9400000211,1948588.5796928485 L 1160694.1800000204,1948737.3796928255 L 1160683.138300021,1948780.1791928103 L 1160676.1000000243,1948807.4596928116 L 1160668.3300000227,1948839.8396928057 L 1160662.8200000226,1948867.919692795 L 1160658.8300000178,1948892.6796927913 L 1160655.4200000195,1948919.1496927873 L 1160651.1601000226,1948965.479692771 L 1160644.3600000204,1949032.7996927605 L 1160637.7801000196,1949098.7896927479 L 1160637.2729000228,1949104.1500927443 L 1160632.4000000171,1949155.6596927347 L 1160625.0300000254,1949227.2996927253 L 1160621.1169000238,1949270.0096927139 L 1160614.3800000208,1949343.5396927055 L 1160602.840000023,1949467.139792681 L 1160580.8800000232,1949706.0396926296 L 1160577.3807000204,1949744.7135926252 L 1160572.230000019,1949801.639692615 L 1160567.0100000228,1949859.3496925991 L 1160553.3684000187,1949999.9996925711 L 1160550.6800000153,1950028.2096925657 L 1160540.0999000198,1950134.2696925465 L 1160531.6300000174,1950210.2396925336 L 1160520.4200000218,1950308.399692511 L 1160516.155200022,1950358.245792496 L 1160585.5800000161,1950357.8696924988 L 1160720.550100017,1950357.0875924989 L 1160895.7688000193,1950356.0723925042 L 1160922.1100000173,1950355.9197925054 L 1160932.9540000241,1950355.8618925058 L 1160971.9500000202,1950355.6540925007 L 1160991.894200024,1950355.5477925087 L 1160993.3319000236,1950355.540192507 L 1160993.8756000223,1950355.537392502 L 1161016.8490000179,1950355.4149925 L 1161016.8500000217,1950355.4149925 L 1161053.4800000195,1950355.2196924991 L 1161268.6400000222,1950354.9397925031 L 1161337.5901000209,1950354.4611925038 L 1161381.0400000205,1950354.1596925012 L 1161601.9201000226,1950353.719792503 L 1161614.0742000204,1950353.6032925027 L 1161659.0276000204,1950353.1725925037 L 1161659.0300000247,1950353.1725925037 L 1161702.8571000209,1950352.7526925025 L 1161714.6500000234,1950352.6397925057 L 1161850.910000024,1950352.4413925037 L 1161948.2600000252,1950352.2997925007 L 1161990.8901000211,1950352.3095925057 L 1162001.6130000209,1950352.3118925092 L 1162042.3600000204,1950352.321092511 L 1162079.9400000207,1950352.3297925016 L 1162232.3900000183,1950352.2162925035 L 1162281.6101000246,1950352.1797925064 L 1162322.8000000187,1950352.2241925006 L 1162423.880000021,1950352.333292498 L 1162457.6903000155,1950352.3696924981 L 1162466.900100024,1950352.3796925088 L 1162500.0000000228,1950352.4078925063 L 1162519.7000000214,1950352.4196925052 L 1162553.8901000232,1950347.0596925064 L 1162574.5901000248,1950345.7797925088 L 1162588.002600022,1950346.2954925105 L 1162602.459600027,1950346.851392507 L 1162612.2241000212,1950347.2268925046 L 1162621.4000000234,1950347.5797925023 L 1162628.004800019,1950347.5796925002 L 1162629.100000026,1950347.5796925048 L 1162635.371700021,1950347.5796925048 L 1162642.206000022,1950347.5796925025 L 1162642.2100000253,1950347.5797925068 L 1162661.9401000256,1950347.5797925023 L 1162710.5100000245,1950347.4296925028 L 1162739.9901000224,1950347.1396925026 L 1162784.3487000242,1950345.6363925019 L 1162848.5801000209,1950343.4598924997 L 1162954.2701000208,1950346.5696924995 L 1163039.9390000235,1950346.4197925085 L 1163039.9400000265,1950346.4197925085 L 1163138.3296000257,1950346.6848925091 L 1163169.7800000256,1950346.7696925087 L 1163300.3100000198,1950346.8696925037 L 1163370.5081000212,1950347.2599925112 L 1163417.2200000198,1950347.5197925004 L 1163424.0210000253,1950347.4462924975 L 1163483.5300000224,1950346.8038925042 L 1163508.610200026,1950346.5331925072 L 1163509.499000024,1950346.5235925054 L 1163509.8924000252,1950346.5192925017 L 1163539.9598000224,1950346.1947925051 L 1163545.0600000203,1950346.1396925037 L 1163554.4762000258,1950346.1335925055 L 1163597.2517000178,1950346.1058925102 L 1163632.8871000235,1950346.0828924978 L 1163632.8942000219,1950346.0828925024 L 1163649.0690000248,1950346.0722925018 L 1163650.9648000249,1950346.0710925085 L 1163650.3800000236,1950346.699692507 L 1163609.0828000184,1950391.0877925009 L 1163599.399600025,1950401.4957924958 L 1163547.7830000215,1950456.9755924826 L 1163532.000000024,1950473.9396924756 L 1163505.0481000193,1950502.9183924738 L 1163490.7801000231,1950518.25949247 L 1163477.468200024,1950532.5687924717 L 1163476.1253000232,1950534.012292465 L 1163384.1003000229,1950632.9323924477 L 1163318.323100022,1950703.638292434 L 1163266.5600000198,1950759.2797924264 L 1163256.9204000242,1950769.6414924215 L 1163190.3871000216,1950841.15879241 L 1163115.3152000257,1950921.8543923898 L 1163048.1845000228,1950994.01389238 L 1162996.9889000203,1951049.044592371 L 1162972.08000002,1951075.8194923603 L 1162937.9039000212,1951112.5539923545 L 1162889.6237000225,1951164.4486923448 L 1162840.9037000241,1951216.8159923328 L 1162795.2200000219,1951265.9196923291 L 1162751.6176000275,1951341.3025923115 L 1162715.10300002,1951404.4312922938 L 1162683.5400000203,1951458.9995922833 L 1162680.6799000276,1951464.2997922855 L 1162665.7974000273,1951491.9697922783 L 1162650.5600000208,1951520.2996922724 L 1162612.7027000238,1951590.6940922562 L 1162595.1733000248,1951623.2893922569 L 1162572.328800021,1951665.7677922396 L 1162572.3283000176,1951665.7686922443 L 1162570.5798000244,1951669.0197922366 L 1162595.2415000238,1951668.9828922444 L 1162972.3398000244,1951668.4195922455 L 1163860.5102000253,1951667.0800922434 L 1164298.4598000252,1951666.419592243 L 1165224.9001000265,1951663.061792239 L 1165678.0601000239,1951661.4196922476 L 1165728.8437000208,1951661.2370922477 L 1165747.9063000279,1951661.1685922446 L 1165778.1601000293,1951661.0597922432 L 1165801.5910000266,1951660.9742922434 L 1165812.3284000242,1951660.935092243 L 1165809.234000025,1951652.8485922453 L 1165809.2001000266,1951652.7598922472 L 1165809.1223000279,1951652.5680922475 L 1165808.0315000245,1951649.8771922481 L 1165808.0001000261,1951649.799792249 L 1165802.2901000264,1951642.7997922471 L 1165802.2900000268,1951642.7984922451 L 1165801.510200025,1951636.0297922532 L 1165801.5009000266,1951636.0073922533 L 1165800.8176000246,1951634.3473922466 L 1165796.1501000237,1951623.0097922494 L 1165795.4461000247,1951622.2153922464 L 1165788.4400000263,1951614.3096922569 L 1165782.830200029,1951602.329692253 L 1165774.620100026,1951587.64979226 L 1165772.2353000236,1951577.542992267 L 1165770.2100000265,1951568.9595922644 L 1165770.4609000257,1951563.7099922653 L 1165770.5355000263,1951562.15039227 L 1165770.7802000244,1951557.0297922657 L 1165775.0300000242,1951540.4997922713 L 1165780.130000025,1951529.7498922755 L 1165785.2000000249,1951519.3498922654 L 1165793.7761000255,1951506.3843922736 L 1165797.9200000265,1951500.1197922765 L 1165803.170200031,1951487.4695922798 L 1165810.2865000253,1951477.7249922785 L 1165813.35010002,1951473.5297922862 L 1165834.370100022,1951447.7097922869 L 1165853.5000000233,1951430.4597922962 L 1165858.5628000277,1951426.855992289 L 1165865.1600000223,1951422.1598922927 L 1165875.7127000268,1951419.828892293 L 1165876.642800023,1951419.6234922935 L 1165876.6602000236,1951419.6195922967 L 1165890.4100000272,1951413.1297922905 L 1165896.750500027,1951406.6457922936 L 1165904.9901000296,1951398.2197923001 L 1165906.8702000305,1951387.4898922984 L 1165910.1248000283,1951375.415292308 L 1165917.2801000245,1951348.8697923042 L 1165924.0202000244,1951334.6197923105 L 1165930.9901000268,1951325.8097923037 L 1165931.9534000268,1951322.9223923127 L 1165934.7401000208,1951314.5696923162 L 1165940.3801000295,1951296.2398923086 L 1165941.5022000233,1951293.0805923105 L 1165949.6399000247,1951270.1697923262 L 1165949.8286000302,1951265.4587923281 L 1165950.3500000301,1951252.4397923257 L 1165949.3872000265,1951249.7898923256 L 1165945.2701000252,1951238.459692331 L 1165939.6821000262,1951232.5475923242 L 1165938.0300000252,1951230.7996923306 L 1165929.7599000242,1951225.169692331 L 1165928.180900023,1951222.315692331 L 1165926.7550000283,1951219.7385923306 L 1165926.7502000227,1951219.7297923288 L 1165933.4211000302,1951204.8366923272 L 1165946.920000031,1951174.6998923386 L 1165960.3701000188,1951157.1798923444 L 1165971.1058000217,1951142.9373923452 L 1165979.750000026,1951131.469892354 L 1166000.820100027,1951108.6998923537 L 1166029.880200027,1951082.2298923526 L 1166050.2199000265,1951062.3996923584 L 1166052.2950000307,1951060.746092364 L 1166067.0601000236,1951048.9797923637 L 1166068.4409000247,1951048.029892369 L 1166072.7001000254,1951045.0997923692 L 1166072.7491000243,1951045.1302923672 L 1166075.3508000292,1951046.7471923658 L 1166120.3832000226,1951074.733192354 L 1166120.4099000224,1951074.7497923607 L 1166137.8658000224,1950985.3403923796 L 1166163.3399000245,1950854.861292402 L 1166163.3402000242,1950854.8596924087 L 1166161.9644000286,1950854.2310924076 L 1166156.0302000265,1950851.519792402 L 1166156.0320000236,1950851.514292403 L 1166157.4185000248,1950847.2442924061 L 1166160.44000003,1950837.939692405 L 1166177.4400000272,1950753.679892427 L 1166196.710000029,1950731.8397924276 L 1166198.6029000275,1950724.8859924308 L 1166199.530000025,1950721.4797924275 L 1166196.250700024,1950718.7316924315 L 1166192.7401000273,1950715.7898924374 L 1166169.810700024,1950710.444392434 L 1166145.7700000284,1950704.8396924436 L 1166157.5400000245,1950655.589592448 L 1166156.1305000272,1950653.8685924471 L 1166155.7300000298,1950653.3796924478 L 1166124.2614000286,1950653.5796924455 L 1166124.240100026,1950653.5797924402 L 1166167.240100027,1950465.249592473 L 1166165.2299000276,1950462.0598924768 L 1166161.0002000262,1950459.1397924814 L 1166147.620000025,1950459.0496924818 L 1166147.611100023,1950456.9210924867 L 1166147.560000023,1950444.569592483 L 1166153.6502000247,1950429.3596924879 L 1166155.4115000258,1950425.3914924872 L 1166160.9601000273,1950412.8897924917 L 1166160.9975000273,1950412.8850924906 L 1166161.6405000286,1950412.8057924996 L 1166167.5201000276,1950412.07989249 L 1166209.1700000255,1950411.2096924908 L 1166221.130100029,1950409.9896924954 L 1166224.7110000255,1950409.3676924894 L 1166225.3900000248,1950409.2497924955 L 1166225.6575000256,1950401.071792494 L 1166226.9500000265,1950361.5496924983 L 1166222.2301000254,1950359.889692503 L 1166211.3813000233,1950359.4022924977 L 1166173.7100000286,1950357.7097925062 L 1166167.7398000222,1950351.9778925106 L 1166167.700200027,1950351.939792504 L 1166164.9302000268,1950345.9572925004 L 1166164.2600000317,1950344.5097925065 L 1166164.5001000317,1950339.435992506 L 1166164.740000022,1950334.3698925092 L 1166164.726400026,1950331.3920925036 L 1166164.7264000247,1950331.3913925032 L 1166164.580200027,1950299.4673925142 L 1166164.5801000237,1950299.4499925144 L 1166160.9824000252,1950297.1394925087 L 1166160.3743000256,1950296.7489925209 L 1166160.3601000307,1950296.7397925076 L 1166150.2802000244,1950295.3698925138 L 1166148.6525000287,1950295.3464925084 L 1166144.0101000282,1950295.2798925065 L 1166141.9901000296,1950295.4171925103 L 1166137.9802000248,1950295.689692509 L 1166136.188000026,1950294.4689925176 L 1166135.5271000266,1950294.0186925149 L 1166132.9601000252,1950292.2697925083 L 1166130.9701000275,1950283.129992517 L 1166133.5628000302,1950262.1974925245 L 1166134.760200027,1950252.52989252 L 1166149.0300000273,1950223.5298925254 L 1166157.6353000265,1950209.7951925308 L 1166159.650000024,1950206.5797925282 L 1166186.2700000275,1950161.709792547 L 1166196.7808000266,1950146.7515925467 L 1166207.7300000244,1950131.1697925518 L 1166213.0024000197,1950125.5412925412 L 1166233.2001000252,1950103.9798925542 L 1166243.7825000228,1950094.6562925554 L 1166248.7500000256,1950090.2796925534 L 1166257.015100023,1950088.9022925536 L 1166260.9302000233,1950088.2496925506 L 1166268.0728000237,1950088.1985925543 L 1166288.9001000214,1950088.0495925557 L 1166299.821600025,1950079.201892562 L 1166306.0701000248,1950074.1397925583 L 1166317.8779000249,1950042.5236925625 L 1166326.290000028,1950019.999792572 L 1166327.3102000274,1950004.8396925733 L 1166327.3300000278,1950002.419792576 L 1166327.3366000263,1950001.628492572 L 1166327.3500000278,1949999.9998925813 L 1166327.4402000278,1949989.4895925762 L 1166326.601800027,1949979.2302925768 L 1166326.6001000262,1949979.2096925767 L 1166316.3101000257,1949972.1697925853 L 1166316.3062000265,1949972.1681925757 L 1166314.3901000267,1949971.389792578 L 1166314.3900000297,1949971.3835925832 L 1166313.4201000237,1949916.7695925906 L 1166313.380300027,1949916.767892593 L 1166303.0535000246,1949916.3316925901 L 1166291.8857000268,1949915.859992585 L 1166291.8801000295,1949915.8597925955 L 1166310.850000029,1949849.9998926078 L 1166315.0188000286,1949847.107292604 L 1166318.6900000293,1949844.5597925975 L 1166318.696500024,1949844.5370926019 L 1166320.6100000273,1949837.8198926107 L 1166326.1899000234,1949833.3397926104 L 1166326.916600024,1949827.9228926024 L 1166327.4202000313,1949824.1696926102 L 1166328.1208000276,1949818.106892605 L 1166328.3701000253,1949815.949792608 L 1166329.4547000246,1949813.2025926067 L 1166331.5601000262,1949807.8698926058 L 1166324.7500000282,1949798.0897926115 L 1166323.255000024,1949796.7192926144 L 1166322.590000027,1949796.1096926106 L 1166325.6568000282,1949788.7187926138 L 1166330.8101000246,1949776.2996926138 L 1166336.7571000266,1949775.2884926153 L 1166343.2200000247,1949774.189692612 L 1166349.6300000257,1949768.9798926215 L 1166356.0872000284,1949763.157692618 L 1166357.5051000263,1949761.879392618 L 1166357.560100025,1949761.8296926166 L 1166361.324900027,1949761.6166926178 L 1166364.1002000314,1949761.4597926198 L 1166366.1102000284,1949761.3197926194 L 1166367.7918000245,1949705.176692634 L 1166370.7900000263,1949605.0796926457 L 1166360.9957000266,1949604.3694926503 L 1166356.310100026,1949604.0296926491 L 1166354.8537000266,1949603.7562926463 L 1166353.3822000234,1949603.4801926468 L 1166353.3801000295,1949603.4796926472 L 1166353.569200029,1949601.6862926518 L 1166356.4100000297,1949574.7598926616 L 1166365.0102000262,1949560.509692655 L 1166369.592600026,1949559.2136926618 L 1166383.7502000253,1949555.2096926535 L 1166400.7400000268,1949553.5695926626 L 1166404.5530000227,1949550.6019926602 L 1166406.9202000254,1949548.7597926622 L 1166407.812900027,1949537.2630926678 L 1166408.230100025,1949531.889792665 L 1166401.3301000257,1949505.409892669 L 1166398.0207000286,1949489.5147926772 L 1166395.0402000246,1949475.199792677 L 1166391.624300026,1949456.3662926785 L 1166391.380100025,1949455.0198926784 L 1166382.040000023,1949444.9797926825 L 1166396.4623000273,1949420.6782926847 L 1166406.3901000253,1949403.9498926902 L 1166411.7195000316,1949403.8242926947 L 1166414.040100027,1949403.769692695 L 1166423.5601000255,1949397.669792694 L 1166432.9701000273,1949393.0197926855 L 1166434.3344000261,1949392.2823926944 L 1166441.1300000288,1949388.6098926945 L 1166441.7890000255,1949387.1316926917 L 1166445.7801000213,1949378.1796926947 L 1166450.4776000243,1949371.6829927017 L 1166451.2101000266,1949370.669892695 L 1166451.2209000245,1949370.6693926952 L 1166455.1792000285,1949370.4781926994 L 1166455.3549000265,1949370.4696926891 L 1166460.9501000247,1949370.1995926977 L 1166471.2641000282,1949332.042092709 L 1166471.8999000292,1949329.6897927038 L 1166473.7306000267,1949311.7546927112 L 1166478.4601000273,1949265.4197927224 L 1166479.1133000262,1949241.050792723 L 1166479.1303000276,1949240.4197927285 L 1166479.129400024,1949240.4140927189 L 1166478.9197000235,1949239.0119927204 L 1166478.6692000253,1949237.3364927215 L 1166478.1600000209,1949233.9297927234 L 1166477.001500021,1949230.8737927256 L 1166477.0000000296,1949230.8697927273 L 1166477.4938000254,1949228.9648927196 L 1166480.0202000255,1949219.2196927192 L 1166480.7019000237,1949217.1692927286 L 1166483.8302000253,1949207.7597927318 L 1166484.1901000275,1949203.9198927279 L 1166494.3300000222,1949193.079792735 L 1166500.5102000283,1949187.9791927345 L 1166500.5420000264,1949187.952892729 L 1166507.2888000265,1949182.384792737 L 1166511.5600000273,1949178.859792737 L 1166531.0501000246,1949151.1097927415 L 1166534.1932000238,1949124.546392745 L 1166535.2382000308,1949115.7154927475 L 1166535.2401000254,1949115.6997927474 L 1166534.2424000276,1949112.82339275 L 1166530.1101000293,1949100.9096927424 L 1166523.5801000262,1949082.329792752 L 1166533.6202000277,1949063.3897927622 L 1166536.4701000277,1949046.559792761 L 1166538.2920000288,1949013.4964927642 L 1166539.5201000313,1948991.209892771 L 1166541.289700028,1948982.257992775 L 1166544.4700000251,1948966.169892774 L 1166550.1304000232,1948947.9374927736 L 1166556.910100028,1948926.0997927862 L 1166569.7802000276,1948903.4896927883 L 1166574.9918000284,1948896.3106927872 L 1166584.8801000265,1948882.6897927911 L 1166604.9700000226,1948849.0998928011 L 1166624.8501000255,1948809.3697928083 L 1166629.6570000253,1948792.9710928092 L 1166638.070200029,1948764.269892817 L 1166641.8459000278,1948762.1216928186 L 1166648.3702000298,1948758.4096928134 L 1166661.3201000248,1948757.7796928224 L 1166661.321600027,1948757.752492822 L 1166661.9600000286,1948746.509592824 L 1166664.1686000302,1948727.9067928204 L 1166665.6501000263,1948715.429592822 L 1166666.5477000282,1948711.5888928252 L 1166667.4917000276,1948707.5499928293 L 1166671.0702000305,1948692.2395928297 L 1166675.3542000267,1948679.7903928412 L 1166676.3448000269,1948676.9117928378 L 1166679.68000003,1948667.2197928333 L 1166680.9482000256,1948658.9812928382 L 1166682.4401000256,1948649.289892842 L 1166681.9649000273,1948642.8718928385 L 1166681.6701000212,1948638.8897928467 L 1166681.7377000293,1948638.5989928395 L 1166686.0600000275,1948620.0098928516 L 1166693.3899000236,1948599.8597928484 L 1166702.380000028,1948580.8896928537 L 1166707.3500000255,1948573.4225928513 L 1166714.6200000267,1948562.4998928583 L 1166723.9499000262,1948531.1497928598 L 1166730.9152000234,1948494.129292873 L 1166732.140000031,1948487.6196928741 L 1166740.1601000289,1948447.3198928812 L 1166743.6738000247,1948432.7398928797 L 1166745.9802000269,1948423.1698928797 L 1166745.993700029,1948423.1558928816 L 1166754.6402000268,1948414.2696928876 L 1166759.47500003,1948408.8642928887 L 1166767.502600025,1948399.8895928888 L 1166769.220000024,1948397.9696928842 L 1166782.3200000294,1948372.0896928972 L 1166804.4600000312,1948309.7598929084 L 1166816.2300000247,1948254.1998929176 L 1166819.7913000295,1948236.016192927 L 1166823.6702000273,1948216.2098929188 L 1166821.7533000272,1948199.8675929233 L 1166820.800100027,1948191.7397929279 L 1166813.0045000291,1948187.127292931 L 1166805.200200026,1948182.5095929336 L 1166799.7698000255,1948177.5725929309 L 1166796.6169000291,1948174.7059929317 L 1166796.610200023,1948174.6998929312 L 1166795.5277000302,1948171.070092933 L 1166792.280100027,1948160.179792937 L 1166794.8369000303,1948152.6425929356 L 1166795.7400000265,1948149.9797929386 L 1166800.4650000231,1948139.841992939 L 1166806.2500000284,1948127.4296929399 L 1166825.6297000307,1948088.9996929478 L 1166825.6600000283,1948088.9395929559 L 1166845.1699000231,1948065.9497929555 L 1166850.202500029,1948059.9674929534 L 1166853.8885000243,1948055.5860929582 L 1166857.5700000273,1948051.2097929618 L 1166872.212800029,1948028.0476929594 L 1166873.520200029,1948025.979792958 L 1166875.1571000244,1948021.665392967 L 1166884.2002000266,1947997.8297929647 L 1166884.3227000274,1947997.264192965 L 1166884.32280003,1947997.2633929697 L 1166884.4361000247,1947996.7402929626 L 1166884.4370000234,1947996.735992966 L 1166890.1900000267,1947970.1596929682 L 1166894.9602000308,1947961.5098929764 L 1166894.9955000237,1947961.507992971 L 1166906.437500023,1947960.8882929708 L 1166910.8401000234,1947960.6497929734 L 1166910.8400000238,1947960.6318929815 L 1166910.8200000313,1947953.679892979 L 1166909.394800028,1947932.5895929825 L 1166909.3804000262,1947932.3766929808 L 1166909.3799000282,1947932.3697929825 L 1166915.330100025,1947894.389892987 L 1166924.402500025,1947870.3463929899 L 1166927.6501000295,1947861.7397929875 L 1166934.3188000193,1947848.8617929942 L 1166949.710000026,1947819.1396930062 L 1166963.2509000225,1947797.4899930044 L 1166970.4501000263,1947785.9797930024 L 1166980.090100028,1947769.3998930163 L 1166981.0864000253,1947766.560093013 L 1166982.2899000286,1947763.1297930107 L 1166981.7052000277,1947760.2971930157 L 1166980.943400027,1947756.6059930117 L 1166980.9400000318,1947756.589593011 L 1166944.3801000295,1947741.2496930195 L 1166957.5702000274,1947696.9896930284 L 1166960.2783000234,1947691.0920930281 L 1166960.890000028,1947689.7598930292 L 1166965.1382000302,1947682.520593035 L 1166973.1901000221,1947668.7997930276 L 1166989.0700000268,1947643.8198930386 L 1167020.2442000268,1947595.3480930438 L 1167023.240100025,1947590.6898930485 L 1167062.9401000245,1947542.5897930518 L 1167096.3300000234,1947512.669793064 L 1167110.8501000297,1947499.9997930666 L 1167122.786500025,1947489.5872930745 L 1167133.8001000274,1947479.9797930662 L 1167160.6800000272,1947450.0997930812 L 1167190.8451000229,1947414.0129930805 L 1167192.6700000227,1947411.8298930854 L 1167193.2543000272,1947411.1910930814 L 1167198.7702000253,1947405.1597930847 L 1167201.0500000305,1947399.7398930816 L 1167201.0728000253,1947398.491793084 L 1167201.090100027,1947397.5397930895 L 1167168.4277000313,1947377.076793089 L 1167163.5048000296,1947373.9926930892 L 1167163.5006000283,1947373.9900930922 L 1167163.5001000266,1947373.9896930943 L 1167174.3683000288,1947358.2157930923 L 1167206.9001000302,1947310.9996931057 L 1167216.8891000308,1947300.575593111 L 1167231.0000000256,1947285.849893104 L 1167259.5427000308,1947255.624493107 L 1167281.040100027,1947232.8598931162 L 1167305.0100000252,1947204.2598931263 L 1167346.2502000243,1947160.0496931288 L 1167365.220000024,1947138.6697931383 L 1167373.0087000285,1947130.3066931374 L 1167397.2761000209,1947104.2495931408 L 1167397.2869000265,1947104.2379931451 L 1167454.5800000269,1947042.719793158 L 1167483.480200031,1946995.8694931683 L 1167490.573700025,1946983.2326931658 L 1167500.0000000263,1946966.4397931716 L 1167505.6336000285,1946956.4010931726 L 1167509.8600000273,1946948.8697931683 L 1167542.5801000248,1946901.06979318 L 1167546.4400000297,1946889.1598931907 L 1167544.6201000279,1946876.7798931866 L 1167535.6484000264,1946872.7730931896 L 1167533.6700000295,1946871.889593191 L 1167533.6513000198,1946871.8888931922 L 1167527.2602000288,1946871.6697931953 L 1167527.2649000303,1946871.6301931932 L 1167527.6500000255,1946868.3998931944 L 1167532.8014000289,1946866.8501931948 L 1167542.010100028,1946864.0798931888 L 1167557.6504000258,1946864.4915931898 L 1167557.9601000259,1946864.4996931884 L 1167557.9612000291,1946864.498793189 L 1167572.110000027,1946850.6395931952 L 1167582.639900028,1946828.8297931994 L 1167584.7767000287,1946825.138293193 L 1167593.8000000296,1946809.5496931986 L 1167607.5402000262,1946788.9998932083 L 1167651.5399000277,1946734.155993214 L 1167675.2200000247,1946704.6398932203 L 1167698.187800032,1946683.730393224 L 1167703.3402000265,1946679.0396932256 L 1167703.3515000325,1946679.0254932244 L 1167708.2816000248,1946672.8752932318 L 1167714.2466000197,1946665.4339932306 L 1167757.2401000294,1946611.7996932368 L 1167806.3000000317,1946545.4796932486 L 1167822.237000028,1946523.8688932562 L 1167823.940000029,1946521.5595932552 L 1167841.5802000288,1946497.6397932647 L 1167862.3405000304,1946470.9852932696 L 1167886.1701000293,1946440.3897932752 L 1167921.1701000258,1946395.4197932873 L 1167949.4547000288,1946366.911893288 L 1167970.5702000281,1946345.6298932906 L 1167991.2844000277,1946319.639993297 L 1168012.7801000264,1946292.669693305 L 1168051.4652000275,1946250.531193309 L 1168068.7900000284,1946231.659793315 L 1168105.5915000301,1946177.436993327 L 1168107.4900000258,1946174.6398933255 L 1168133.7100000281,1946115.25979334 L 1168155.881500028,1946087.2927933473 L 1168161.7900000268,1946079.8397933373 L 1168203.1665000282,1946031.9683933558 L 1168211.990100028,1946021.7596933458 L 1168211.9947000262,1946021.755793354 L 1168237.8673000222,1945999.1342933576 L 1168299.5301000248,1945945.2198933803 L 1168331.6501000307,1945918.329793379 L 1168408.9402000285,1945853.7098933882 L 1168446.5659000303,1945819.4036933973 L 1168461.5300000303,1945805.7598934027 L 1168470.6359000301,1945798.5826933938 L 1168490.4700000258,1945782.9498934068 L 1168505.4902000327,1945769.4797934066 L 1168509.8773000324,1945764.405793405 L 1168509.9791000301,1945764.2880934118 L 1168584.0591000265,1945842.470593387 L 1168593.2637000275,1945834.3885933894 L 1168517.8314000322,1945754.4662934104 L 1168383.5843000298,1945618.1422934362 L 1168382.3901000267,1945616.9296934316 L 1168151.9247000294,1945609.5576934377 L 1167961.2900000259,1945603.4597934398 L 1167956.630100029,1945574.939893443 L 1167956.9400000267,1945430.7497934722 L 1167955.9430000305,1945372.4067934814 L 1167955.7600000321,1945361.6997934838 L 1167957.7948000277,1945346.1271934859 L 1167957.7950000328,1945346.125793489 L 1167958.711800027,1945339.1101934938 L 1167967.04980003,1945275.2998935063 L 1167972.2422000237,1945246.3240935106 L 1167978.287200031,1945212.5894935161 L 1167987.0802000295,1945163.5197935263 L 1168039.710200032,1945036.0996935554 L 1168046.2935000297,1945019.3324935564 L 1168053.6801000289,1945000.5197935528 L 1168054.060100028,1944999.9996935572 L 1168058.7058000264,1944993.672893559 L 1168060.8300000257,1944990.7798935578 L 1168060.8590000288,1944990.777993561 L 1168064.5433000303,1944990.5368935536 L 1168067.2493000273,1944990.359893561 L 1168067.2500000256,1944990.3597935645 L 1168066.4100000318,1944967.2598935629 L 1168082.530100029,1944925.8598935704 L 1168090.4335000282,1944912.4720935763 L 1168107.4602000322,1944883.6298935777 L 1168116.2656000312,1944873.1515935808 L 1168119.6200000285,1944869.159893585 L 1168122.4201000289,1944865.2595935904 L 1168122.4203000267,1944865.2579935784 L 1168122.8513000307,1944862.265293585 L 1168143.9762000272,1944862.6174935861 L 1168143.6241000264,1944882.1579935814 L 1168152.2501000327,1944882.1579935793 L 1168152.9543000332,1944853.1111935833 L 1168121.9501000305,1944852.1897935884 L 1167996.3800000253,1944850.359793587 L 1167996.5601000267,1944745.6194936126 L 1168000.7445000252,1944731.0612936046 L 1168001.3802000303,1944728.849793611 L 1168002.2866000286,1944723.71419361 L 1168007.8401000323,1944692.2497936205 L 1168009.5818000273,1944679.6769936157 L 1168009.5821000307,1944679.6744936274 L 1168011.2300000256,1944667.7796936296 L 1168011.2484000293,1944667.7608936285 L 1168014.9023000298,1944664.01419363 L 1168022.2601000292,1944656.4696936284 L 1168045.1902000317,1944614.1997936277 L 1168061.7097000224,1944561.5195936447 L 1168062.919900027,1944557.6601936459 L 1168066.1500000253,1944547.359693646 L 1168084.0300000315,1944482.6196936572 L 1168076.0499000289,1944456.3597936642 L 1168078.491800026,1944452.576593667 L 1168078.8410000298,1944452.035693665 L 1168082.8402000272,1944445.8397936649 L 1168093.3261000304,1944412.1178936688 L 1168099.9800000263,1944390.7195936725 L 1168112.4900000293,1944319.6595936916 L 1168110.9768000306,1944312.488193694 L 1168110.9076000317,1944312.1601936938 L 1168106.550000028,1944291.5097936976 L 1168106.6764000303,1944280.4750936977 L 1168106.8201000262,1944267.9108937096 L 1168106.8340000266,1944266.7023936983 L 1168106.8702000286,1944263.5398937068 L 1168106.8800000285,1944263.508793703 L 1168111.6551000283,1944248.3148937083 L 1168115.8901000272,1944234.8397937038 L 1168165.7102000266,1944151.2397937214 L 1168191.8600000243,1944100.6497937336 L 1168199.1200000304,1944090.9598937358 L 1168207.220200025,1944087.009793736 L 1168215.1901000256,1944078.179893742 L 1168215.2194000226,1944078.163493739 L 1168229.7096000277,1944070.1163937403 L 1168231.2702000274,1944069.2497937442 L 1168270.5600000308,1943964.3997937595 L 1168286.8994000251,1943915.1814937734 L 1168293.6783000277,1943894.761693774 L 1168303.2001000268,1943866.0798937795 L 1168322.1000000301,1943814.3798937884 L 1168343.320000031,1943762.6597937988 L 1168357.1000000325,1943717.6196938057 L 1168365.0800000252,1943658.3097938206 L 1168357.468600032,1943633.3067938224 L 1168354.9001000281,1943624.8697938307 L 1168354.20540003,1943623.5826938269 L 1168345.6703000257,1943607.7697938306 L 1168352.7156000277,1943568.4075938389 L 1168354.4800000305,1943558.5497938448 L 1168384.5001000285,1943447.349793871 L 1168419.070100026,1943321.9197938892 L 1168423.1506000303,1943303.2974938927 L 1168425.0301000266,1943294.7196938887 L 1168432.9549000314,1943268.0499939001 L 1168435.1302000259,1943260.729593902 L 1168437.345300028,1943251.4512939015 L 1168447.1601000328,1943210.3398939052 L 1168449.1401000274,1943201.19479392 L 1168454.3201000257,1943177.2696939174 L 1168462.3500000313,1943155.0398939252 L 1168518.5000000272,1943050.7297939407 L 1168544.4637000274,1943003.4993939558 L 1168548.9602000308,1942995.3198939606 L 1168561.9802000292,1942985.07989396 L 1168569.501000031,1942980.4495939512 L 1168574.6500000304,1942977.279793957 L 1168596.2896000294,1942940.8614939642 L 1168608.6200000334,1942920.109893965 L 1168652.0002000264,1942835.719693985 L 1168663.3500000318,1942813.7897939908 L 1168666.3349000295,1942807.5562939858 L 1168681.8102000265,1942775.2397939903 L 1168701.1402000275,1942742.7898940057 L 1168717.8900000276,1942716.9097940077 L 1168734.8371000316,1942694.0575940076 L 1168745.0101000322,1942680.3396940161 L 1168753.565000031,1942659.2839940197 L 1168753.8700000271,1942658.5331940204 L 1168756.114700028,1942653.0085940205 z" /></g></g></svg>